PathFileType	4	(X/Y/Z)	Walk4.trc
DataRate	CameraRate	NumFrames	NumMarkers	Units	OrigDataRate	OrigDataStartFrame	OrigNumFrames
200.000000	200.000000	4	69	mm	200.000000	721	1013
Frame#	Times		LFHD		LowerBodyModelVer		RCAR		RFHD		RWRU		RACR1		RFA1		RASI		LElbow		LTH3		LTB1		RUA1		LMT1		LACR1		LLFC		LMT5		LTH4		LTH2		LUA1		RTH2		LTB3		LTB2		LTB4		LToe		STRN		RBHD		CLAV		RTH4		RLFC		LLMAL		LASI		PELOrigin		RTH3		LWRU		RBack		LTH1		LFA1		C7		RPSI		LBHD		RMT1		RCAL		RMT5		LPSI		RTH1		RTB2		RToe		LHJC		MidPelvis		OPelvis		RHJC		SACR		XPelvis		YPelvis		ZPelvis		LCAR		RLMAL		LWRR		RWRR		RElbow		RTB1		RTB3		RTB4		RMMAL		LMMAL		T10		RElbowM		LCAL		LElbowM
			X1	Y1	Z1	X2	Y2	Z2	X3	Y3	Z3	X4	Y4	Z4	X5	Y5	Z5	X6	Y6	Z6	X7	Y7	Z7	X8	Y8	Z8	X9	Y9	Z9	X10	Y10	Z10	X11	Y11	Z11	X12	Y12	Z12	X13	Y13	Z13	X14	Y14	Z14	X15	Y15	Z15	X16	Y16	Z16	X17	Y17	Z17	X18	Y18	Z18	X19	Y19	Z19	X20	Y20	Z20	X21	Y21	Z21	X22	Y22	Z22	X23	Y23	Z23	X24	Y24	Z24	X25	Y25	Z25	X26	Y26	Z26	X27	Y27	Z27	X28	Y28	Z28	X29	Y29	Z29	X30	Y30	Z30	X31	Y31	Z31	X32	Y32	Z32	X33	Y33	Z33	X34	Y34	Z34	X35	Y35	Z35	X36	Y36	Z36	X37	Y37	Z37	X38	Y38	Z38	X39	Y39	Z39	X40	Y40	Z40	X41	Y41	Z41	X42	Y42	Z42	X43	Y43	Z43	X44	Y44	Z44	X45	Y45	Z45	X46	Y46	Z46	X47	Y47	Z47	X48	Y48	Z48	X49	Y49	Z49	X50	Y50	Z50	X51	Y51	Z51	X52	Y52	Z52	X53	Y53	Z53	X54	Y54	Z54	X55	Y55	Z55	X56	Y56	Z56	X57	Y57	Z57	X58	Y58	Z58	X59	Y59	Z59	X60	Y60	Z60	X61	Y61	Z61	X62	Y62	Z62	X63	Y63	Z63	X64	Y64	Z64	X65	Y65	Z65	X66	Y66	Z66	X67	Y67	Z67	X68	Y68	Z68	X69	Y69	Z69

721	3.605	-230.93	1576.4	-36.278	9	2014	4	-365.57	788.89	348.52	-230.06	1576.2	61.124	-407.25	843.11	360.79	-368.29	1377.2	182.51	-389.87	950.29	331.85	-283.31	960.12	189.61	-428.47	1071.1	-283.27	-275.74	560.69	-150.46	-257.29	335.29	-22.894	-409.44	1237	272.68	-187.81	34.845	-2.0021	-342.42	1354.4	-174.85	-285.77	486.18	-130.37	-202.16	27.037	-92.864	-279.4	643.41	-180.72	-227.85	654.86	-151.34	-359.09	1207.3	-248.92	-297.45	629.63	223.11	-275.37	164.68	-27.034	-266.04	252.05	-88.117	-269.19	250.46	-26.802	-145.14	31.223	-1.0922	-218.01	1224	16.371	-400.86	1569.3	70.931	-281.09	1338.4	9.2339	-356.85	627.36	234.32	-356.96	455.74	218.29	-318.58	68.161	-88.648	-257.91	969.5	-157.43	-270.61	964.81	16.09	-354.42	541.27	223.86	-439.23	831.33	-347.4	-504.09	1313.6	102.17	-279.61	723.49	-209.9	-395.09	941.68	-315.78	-442.52	1413.3	8.5781	-525.67	973.37	37.76	-382.27	1557.8	-63.452	-567.14	70.938	83.589	-693.62	205.72	110.04	-594.6	67.549	164.57	-501.69	980.7	-95.104	-346.9	710.7	245.64	-460.86	305.05	191.42	-540.15	39.711	95.301	-347.25	860.54	-111.05	-392.14	970.92	-6.2911	-270.61	964.81	16.09	-364.52	854.16	124.94	-513.68	977.04	-28.672	-190.9	961.07	21.823	-267.04	1044.7	18.509	-276.45	962.65	95.847	-412.91	776.62	-347.02	-639.44	189.33	162.34	-387.65	819.97	-293.81	-361.5	846.3	302.07	-456.99	1076.5	311.49	-373.28	335.76	140.91	-525.16	237.85	102.99	-449.22	286.81	121.95	-606.94	185.14	82.58	-312.97	73.366	-2.8685	-492.2	1081.7	-3.7047	-485.81	1059.3	225.02	-375.69	28.96	-48.706	-440.15	1037.4	-181.36
722	3.61	-226.27	1576.9	-36.572	9	2014	4	-363.81	788.75	346.78	-225.48	1576.7	60.83	-405.04	843.3	359.57	-364.36	1377.8	182.19	-387.09	950.46	330.86	-279.18	960.91	189.97	-421.95	1071	-284.18	-274.59	560.42	-150.37	-257.07	335.19	-22.681	-405.84	1237.8	272.34	-187.81	34.797	-1.9869	-337.79	1354.7	-175.28	-284.63	486.04	-130.26	-202.18	27.084	-92.825	-277.88	643.16	-180.59	-226.02	654.26	-151.65	-353.47	1207.6	-249.43	-290.31	631.71	223.76	-275.23	164.5	-26.918	-265.67	251.93	-87.94	-268.94	250.31	-26.655	-145.02	31.208	-1.2216	-213.55	1224.7	16.134	-396.28	1569.8	70.506	-276.66	1339	8.9244	-349.71	628.73	234.78	-347.91	457.23	219.15	-318.58	68.161	-88.521	-253.65	969.9	-157.65	-266.41	965.4	16.161	-346.25	542.64	224.57	-429.85	831.01	-347.88	-499.78	1314	101.4	-277.65	723.2	-209.87	-387.11	941.86	-316.16	-437.99	1413.9	7.981	-521.14	973.72	37.751	-377.59	1558.3	-63.863	-554.8	71.581	84.622	-683	205.12	109.32	-582.65	68.636	165.53	-497.2	981.13	-95.108	-340.86	712.19	246.06	-451.05	306.16	191.99	-527.64	40.576	96.768	-343.08	860.76	-111.08	-387.79	971.41	-6.2586	-266.41	965.4	16.161	-360.44	854.65	125.3	-509.17	977.42	-28.678	-186.71	961.72	21.921	-262.89	1045.3	18.486	-272.27	963.34	95.92	-402.8	776.69	-347.37	-628.83	189.63	162.07	-378.46	820.33	-294.01	-359.41	846.4	300.68	-453.55	1077.1	310.91	-363.31	337.14	141.9	-514.48	238.44	103.3	-438.89	287.79	122.6	-595.87	185.3	82.516	-312.97	73.277	-2.7688	-487.63	1082.2	-3.9949	-482.63	1060.3	224.51	-375.72	28.967	-48.63	-434.95	1037	-182.43
723	3.615	-221.62	1577.4	-36.832	9	2014	4	-362.01	788.59	345.11	-220.9	1577.2	60.572	-402.79	843.47	358.39	-360.41	1378.4	181.91	-384.29	950.6	329.91	-275.1	961.62	190.32	-415.42	1070.9	-285.08	-273.34	560.18	-150.25	-256.89	335.12	-22.45	-402.25	1238.5	272.01	-187.79	34.75	-1.973	-333.17	1355	-175.69	-283.45	485.91	-130.13	-202.2	27.127	-92.789	-276.31	642.95	-180.41	-224.16	653.71	-151.92	-347.9	1207.9	-249.91	-283.2	633.81	224.39	-275.12	164.35	-26.775	-265.3	251.82	-87.737	-268.73	250.17	-26.488	-144.9	31.192	-1.3537	-209.1	1225.4	15.951	-391.7	1570.3	70.116	-272.24	1339.5	8.6362	-342.59	630.15	235.22	-338.91	458.74	219.94	-318.57	68.166	-88.398	-249.41	970.2	-157.86	-262.26	965.91	16.226	-338.12	544.06	225.25	-420.41	830.7	-348.34	-495.47	1314.4	100.66	-275.69	722.96	-209.78	-379.1	942.04	-316.51	-433.45	1414.4	7.4444	-516.63	974.05	37.717	-372.93	1558.9	-64.242	-542.03	72.032	85.61	-672.12	204.07	108.64	-570.21	69.474	166.46	-492.71	981.52	-95.135	-334.84	713.72	246.49	-441.08	307.14	192.54	-514.64	41.337	98.158	-338.95	860.92	-111.12	-383.46	971.85	-6.2416	-262.26	965.91	16.226	-356.43	855.08	125.64	-504.67	977.79	-28.709	-182.55	962.25	22.018	-258.75	1045.8	18.454	-268.14	963.94	95.985	-392.61	776.8	-347.72	-617.93	189.56	161.82	-369.24	820.7	-294.18	-357.28	846.49	299.33	-450.08	1077.6	310.37	-353.25	338.52	142.84	-503.58	238.84	103.59	-428.41	288.68	123.22	-584.52	185.17	82.458	-312.98	73.191	-2.6832	-483.07	1082.7	-4.2926	-479.46	1061.2	224.04	-375.75	28.977	-48.554	-429.71	1036.6	-183.5
724	3.62	-216.99	1577.9	-37.059	9	2014	4	-360.17	788.43	343.49	-216.34	1577.6	60.348	-400.51	843.62	357.25	-356.44	1378.9	181.67	-381.47	950.72	329	-271.07	962.25	190.65	-408.88	1070.7	-285.97	-272	559.99	-150.08	-256.73	335.07	-22.211	-398.66	1239.2	271.7	-187.78	34.705	-1.9607	-328.55	1355.3	-176.08	-282.26	485.81	-130	-202.22	27.165	-92.757	-274.68	642.78	-180.19	-222.26	653.23	-152.14	-342.37	1208.1	-250.36	-276.12	635.93	225.01	-275.04	164.22	-26.611	-264.94	251.73	-87.515	-268.56	250.05	-26.309	-144.79	31.173	-1.4885	-204.66	1226	15.824	-387.14	1570.7	69.757	-267.83	1340	8.3681	-335.48	631.6	235.65	-329.96	460.26	220.68	-318.57	68.176	-88.28	-245.18	970.41	-158.08	-258.13	966.33	16.283	-330.02	545.53	225.89	-410.92	830.41	-348.77	-491.16	1314.8	99.982	-273.72	722.76	-209.64	-371.07	942.23	-316.84	-428.9	1414.8	6.9669	-512.14	974.38	37.655	-368.28	1559.4	-64.589	-528.85	72.29	86.559	-660.98	202.58	108.01	-557.31	70.063	167.37	-488.24	981.88	-95.184	-328.84	715.27	246.91	-430.98	307.97	193.06	-501.17	41.987	99.481	-334.88	861.01	-111.17	-379.16	972.23	-6.2409	-258.13	966.33	16.283	-352.48	855.46	125.97	-500.19	978.13	-28.765	-178.42	962.68	22.114	-254.63	1046.2	18.412	-264.05	964.46	96.042	-382.35	776.96	-348.05	-606.73	189.14	161.6	-359.99	821.09	-294.32	-355.12	846.55	298.04	-446.62	1078.2	309.86	-343.09	339.88	143.72	-492.47	239.04	103.87	-417.78	289.46	123.79	-572.91	184.75	82.413	-313	73.113	-2.6143	-478.51	1083.2	-4.5962	-476.29	1062.1	223.62	-375.77	28.992	-48.481	-424.42	1036.2	-184.57
